<svg xmlns="http://www.w3.org/2000/svg" width="1600" height="900" viewBox="0 0 1600 900">
  <rect width="1600" height="900" fill="#FFFFFF"/>
  <g opacity="0.28" fill="none" stroke="#35D6C8" stroke-width="2">
    <path d="M1050 600c80-80 210-80 300 0"/>
    <path d="M980 665c120-110 300-110 450 5"/>
    <path d="M900 735c180-150 400-150 570 10"/>
    <path d="M1080 540c60-50 150-50 220 0"/>
  </g>
  <g opacity="0.14" stroke="#0B3A53" stroke-width="1">
    <path d="M0 150H1600M0 300H1600M0 450H1600M0 600H1600M0 750H1600"/>
    <path d="M200 0V900M400 0V900M600 0V900M800 0V900M1000 0V900M1200 0V900M1400 0V900"/>
  </g>
</svg>